<svg xmlns="http://www.w3.org/2000/svg" width="547" height="547" viewBox="0 0 547 547">
<g>
<path d="M 274.27,14.76 L 277.02,14.79 L 282.48,14.92 L 285.19,15.00 L 290.36,15.25 L 292.88,15.39 L 297.50,15.74 L 303.50,16.40 L 309.69,17.27 L 321.75,19.67 L 327.72,20.98 L 339.35,24.28 L 345.11,26.04 L 356.30,30.23 L 361.84,32.43 L 372.59,37.51 L 377.91,40.16 L 388.22,46.13 L 393.32,49.22 L 403.18,56.07 L 408.06,59.61 L 417.46,67.35 L 431.06,79.94 L 433.73,82.61 L 438.84,88.10 L 441.35,90.86 L 446.15,96.55 L 448.51,99.41 L 453.00,105.28 L 455.20,108.24 L 459.37,114.29 L 461.42,117.34 L 465.27,123.55 L 467.15,126.68 L 470.68,133.06 L 472.41,136.26 L 475.61,142.79 L 477.17,146.07 L 480.04,152.74 L 481.43,156.09 L 483.97,162.90 L 485.19,166.31 L 487.39,173.24 L 488.45,176.71 L 490.30,183.75 L 491.19,187.29 L 492.70,194.43 L 493.41,198.02 L 494.57,205.26 L 495.11,208.89 L 495.92,216.22 L 496.28,219.90 L 496.73,227.31 L 497.00,238.50 L 497.00,244.28 L 496.34,255.72 L 495.91,261.42 L 494.39,272.66 L 493.53,278.25 L 491.20,289.26 L 489.93,294.72 L 486.79,305.45 L 485.12,310.78 L 481.20,321.19 L 479.15,326.36 L 474.48,336.42 L 472.06,341.41 L 466.67,351.08 L 463.89,355.87 L 457.80,365.12 L 454.67,369.69 L 447.92,378.47 L 444.46,382.80 L 437.05,391.08 L 433.27,395.16 L 425.25,402.90 L 421.16,406.69 L 412.54,413.86 L 408.16,417.36 L 398.98,423.91 L 394.32,427.10 L 384.59,432.99 L 379.66,435.85 L 369.42,441.05 L 353.50,448.03 L 352.11,448.58 L 348.95,449.71 L 347.32,450.28 L 343.76,451.43 L 340.13,452.58 L 332.15,454.81 L 328.11,455.89 L 319.96,457.81 L 317.95,458.26 L 314.06,459.06 L 308.50,460.09 L 306.74,460.39 L 302.54,460.91 L 300.34,461.16 L 295.46,461.59 L 292.95,461.79 L 287.63,462.10 L 284.94,462.25 L 279.43,462.45 L 276.68,462.53 L 271.24,462.61 L 268.56,462.64 L 263.44,462.58 L 260.95,462.54 L 256.40,462.35 L 254.22,462.23 L 250.50,461.89 L 247.32,461.55 L 240.90,460.62 L 237.68,460.12 L 231.20,458.88 L 227.96,458.22 L 221.46,456.68 L 218.21,455.88 L 211.74,454.05 L 208.51,453.10 L 202.10,451.00 L 198.90,449.92 L 192.59,447.55 L 189.45,446.34 L 183.28,443.72 L 174.22,439.53 L 170.07,437.49 L 162.03,433.08 L 158.05,430.82 L 150.36,425.97 L 146.55,423.49 L 139.22,418.22 L 135.59,415.53 L 128.63,409.86 L 125.19,406.97 L 118.61,400.91 L 115.36,397.83 L 109.17,391.40 L 106.13,388.14 L 100.35,381.35 L 97.51,377.91 L 92.15,370.79 L 89.52,367.19 L 84.59,359.75 L 82.19,355.99 L 77.70,348.24 L 75.52,344.34 L 71.49,336.31 L 69.54,332.26 L 65.98,323.96 L 64.27,319.78 L 61.19,311.23 L 59.72,306.93 L 57.14,298.14 L 55.91,293.72 L 53.84,284.72 L 51.32,271.00 L 51.02,269.01 L 50.52,264.29 L 50.29,261.83 L 49.95,256.37 L 49.80,253.57 L 49.61,247.64 L 49.53,244.64 L 49.49,238.50 L 49.49,235.43 L 49.61,229.36 L 49.68,226.36 L 49.95,220.63 L 50.10,217.83 L 50.52,212.71 L 51.32,206.00 L 52.29,199.70 L 54.94,187.40 L 56.38,181.30 L 59.94,169.44 L 61.84,163.57 L 66.29,152.19 L 68.62,146.57 L 73.92,135.70 L 76.67,130.33 L 82.78,120.02 L 85.93,114.93 L 92.82,105.19 L 96.35,100.40 L 103.98,91.28 L 107.88,86.80 L 116.20,78.34 L 120.45,74.19 L 129.44,66.42 L 134.02,62.62 L 143.65,55.56 L 148.53,52.13 L 158.75,45.84 L 163.93,42.79 L 174.71,37.29 L 180.17,34.64 L 191.47,29.97 L 197.19,27.74 L 208.98,23.93 L 214.93,22.14 L 227.17,19.23 L 246.00,15.91 L 247.61,15.70 L 251.58,15.35 L 253.67,15.20 L 258.42,14.98 L 260.86,14.88 L 266.11,14.78 L 268.77,14.75 M 267.09,27.20 L 262.71,27.29 L 254.16,27.85 L 249.91,28.19 L 241.57,29.24 L 237.42,29.84 L 229.25,31.40 L 225.19,32.25 L 217.14,34.34 L 213.13,35.45 L 205.17,38.07 L 201.20,39.44 L 193.27,42.60 L 181.36,47.95 L 179.28,48.96 L 175.39,50.91 L 173.49,51.88 L 169.88,53.80 L 166.34,55.72 L 159.85,59.62 L 156.66,61.60 L 150.48,65.89 L 141.00,73.11 L 138.57,75.05 L 133.88,79.07 L 131.55,81.10 L 127.07,85.28 L 122.63,89.50 L 114.41,98.40 L 110.40,102.92 L 103.04,112.37 L 99.47,117.17 L 92.98,127.12 L 89.85,132.15 L 84.26,142.54 L 81.58,147.79 L 76.90,158.55 L 74.67,163.97 L 70.91,175.05 L 69.15,180.62 L 66.32,191.95 L 65.03,197.64 L 63.15,209.16 L 62.33,214.94 L 61.41,226.60 L 61.08,232.43 L 61.14,244.15 L 61.29,250.02 L 62.35,261.75 L 63.00,267.61 L 65.05,279.29 L 66.21,285.12 L 69.28,296.68 L 70.95,302.45 L 75.05,313.84 L 76.14,316.67 L 78.52,322.30 L 82.39,330.66 L 83.35,332.63 L 85.23,336.34 L 86.17,338.16 L 88.04,341.64 L 89.92,345.06 L 93.78,351.42 L 95.74,354.55 L 99.99,360.65 L 107.09,370.00 L 109.96,373.60 L 115.99,380.46 L 119.05,383.83 L 125.45,390.24 L 128.69,393.39 L 135.43,399.34 L 138.84,402.26 L 145.89,407.74 L 149.46,410.42 L 156.81,415.42 L 160.53,417.86 L 168.16,422.38 L 172.00,424.57 L 179.89,428.59 L 183.86,430.54 L 191.97,434.05 L 196.05,435.74 L 204.38,438.74 L 208.56,440.17 L 217.08,442.65 L 221.35,443.82 L 230.03,445.76 L 234.39,446.66 L 243.21,448.06 L 247.63,448.69 L 256.58,449.54 L 261.06,449.89 L 270.10,450.18 L 274.63,450.25 L 283.76,449.97 L 288.32,449.76 L 297.50,448.90 L 301.00,448.52 L 307.97,447.46 L 311.45,446.89 L 318.36,445.46 L 321.81,444.71 L 328.65,442.92 L 332.06,441.98 L 338.81,439.83 L 342.17,438.71 L 348.82,436.22 L 352.13,434.94 L 358.66,432.11 L 361.91,430.65 L 368.30,427.50 L 371.48,425.88 L 377.72,422.41 L 380.82,420.63 L 386.90,416.85 L 389.92,414.92 L 395.81,410.83 L 398.73,408.75 L 404.43,404.38 L 407.25,402.15 L 412.73,397.49 L 415.44,395.13 L 420.69,390.20 L 423.29,387.70 L 428.29,382.50 L 430.76,379.87 L 435.50,374.42 L 442.31,365.96 L 444.37,363.26 L 448.34,357.55 L 450.30,354.65 L 454.05,348.60 L 455.89,345.53 L 459.39,339.19 L 461.10,336.00 L 464.31,329.44 L 465.87,326.15 L 468.76,319.45 L 470.16,316.09 L 472.70,309.31 L 473.92,305.92 L 476.07,299.13 L 478.84,289.00 L 479.45,286.45 L 480.50,281.95 L 480.99,279.78 L 481.80,275.85 L 482.18,273.93 L 482.79,270.31 L 483.07,268.51 L 483.51,264.96 L 483.70,263.17 L 483.99,259.43 L 484.12,257.52 L 484.28,253.34 L 484.35,251.18 L 484.42,246.33 L 484.45,238.00 L 484.44,234.96 L 484.39,229.60 L 484.35,227.02 L 484.20,222.39 L 484.11,220.15 L 483.84,216.03 L 483.68,214.01 L 483.26,210.15 L 483.03,208.23 L 482.43,204.41 L 482.11,202.48 L 481.30,198.46 L 480.87,196.40 L 479.83,191.94 L 477.97,184.50 L 476.98,180.65 L 474.66,173.04 L 473.44,169.26 L 470.67,161.82 L 469.23,158.12 L 466.03,150.86 L 464.37,147.25 L 460.76,140.18 L 458.90,136.67 L 454.89,129.82 L 452.84,126.42 L 448.44,119.80 L 446.20,116.52 L 441.43,110.15 L 439.01,106.99 L 433.89,100.89 L 431.29,97.87 L 425.84,92.05 L 423.08,89.18 L 417.30,83.66 L 414.38,80.94 L 408.30,75.75 L 405.23,73.19 L 398.86,68.33 L 395.64,65.95 L 388.99,61.45 L 385.64,59.25 L 378.74,55.12 L 375.26,53.11 L 368.11,49.38 L 357.13,44.24 L 354.05,42.91 L 347.89,40.49 L 344.81,39.31 L 338.64,37.22 L 335.55,36.21 L 329.33,34.42 L 326.22,33.57 L 319.93,32.10 L 316.78,31.40 L 310.39,30.24 L 307.18,29.69 L 300.65,28.82 L 297.37,28.42 L 290.69,27.84 L 280.43,27.28 L 275.91,27.13 M 285.00,399.00 L 263.00,399.00 L 263.00,353.00 L 285.00,353.00 M 231.00,370.26 L 231.00,372.62 L 231.00,373.77 L 230.99,375.85 L 230.99,377.87 L 230.95,381.15 L 230.93,382.68 L 230.87,385.08 L 230.83,386.18 L 230.72,387.86 L 230.65,388.62 L 230.48,389.71 L 230.38,390.20 L 230.14,390.87 L 229.07,391.96 L 228.80,392.11 L 227.58,392.35 L 226.88,392.46 L 224.98,392.65 L 223.97,392.74 L 221.65,392.86 L 220.46,392.92 L 217.98,392.98 L 216.74,393.00 L 214.35,392.99 L 213.20,392.97 L 211.17,392.89 L 210.22,392.84 L 208.81,392.67 L 208.20,392.58 L 207.67,392.33 L 207.62,392.29 L 207.53,391.74 L 207.49,391.40 L 207.41,390.31 L 207.37,389.71 L 207.29,388.13 L 207.26,387.29 L 207.20,385.30 L 207.17,384.26 L 207.11,381.91 L 207.09,380.70 L 207.05,378.06 L 207.00,369.33 L 207.00,347.00 L 231.00,347.00 M 340.00,392.00 L 316.00,392.00 L 316.00,346.50 L 340.00,346.50 M 365.97,324.75 L 365.96,326.80 L 365.88,330.14 L 365.82,331.69 L 365.63,334.11 L 365.52,335.21 L 365.21,336.78 L 364.61,338.25 L 364.45,338.46 L 363.79,338.80 L 363.57,338.88 L 362.95,339.02 L 362.60,339.09 L 361.68,339.22 L 361.17,339.28 L 359.86,339.38 L 359.15,339.44 L 357.39,339.53 L 356.44,339.57 L 354.15,339.64 L 352.93,339.68 L 350.03,339.74 L 348.50,339.77 L 344.93,339.82 L 343.05,339.84 L 338.73,339.88 L 336.46,339.90 L 331.31,339.93 L 328.63,339.94 L 322.58,339.96 L 319.44,339.97 L 312.42,339.98 L 310.60,339.98 L 306.77,339.99 L 304.82,339.99 L 300.72,339.99 L 298.63,339.99 L 294.26,340.00 L 292.03,340.00 L 287.36,340.00 L 284.99,340.00 L 280.03,340.00 L 272.25,340.00 L 269.68,340.00 L 264.76,340.00 L 262.34,340.00 L 257.70,340.00 L 253.12,340.00 L 244.76,339.99 L 240.71,339.99 L 233.35,339.98 L 229.79,339.97 L 223.37,339.95 L 220.28,339.94 L 214.73,339.92 L 212.06,339.91 L 207.32,339.88 L 205.05,339.86 L 201.06,339.82 L 199.15,339.80 L 195.85,339.74 L 194.28,339.72 L 191.59,339.65 L 190.32,339.62 L 188.20,339.55 L 187.20,339.51 L 185.57,339.42 L 184.81,339.37 L 183.61,339.27 L 183.06,339.21 L 182.23,339.09 L 181.86,339.03 L 181.33,338.90 L 180.88,338.75 L 180.61,338.42 L 180.57,338.31 L 180.49,337.86 L 180.45,337.60 L 180.37,336.86 L 180.30,336.07 L 180.18,333.80 L 180.12,332.58 L 180.05,329.67 L 180.00,324.92 L 180.00,313.00 L 366.00,313.00 M 395.00,263.59 L 395.00,267.33 L 395.00,269.15 L 394.99,272.45 L 394.99,274.04 L 394.98,276.94 L 394.97,278.33 L 394.95,280.85 L 394.94,282.06 L 394.92,284.23 L 394.90,285.28 L 394.87,287.13 L 394.85,288.02 L 394.80,289.59 L 394.77,290.35 L 394.71,291.67 L 394.64,292.94 L 394.46,294.85 L 394.36,295.73 L 394.10,297.06 L 392.97,300.07 L 392.56,300.85 L 391.72,302.13 L 391.27,302.73 L 390.21,303.75 L 389.63,304.24 L 388.17,305.14 L 385.34,306.53 L 379.75,309.00 L 272.63,308.95 L 165.50,308.91 L 160.85,306.49 L 159.57,305.82 L 156.95,303.78 L 156.34,303.25 L 155.28,302.18 L 154.10,300.66 L 153.59,299.84 L 152.92,298.03 L 152.77,297.47 L 152.54,295.98 L 152.44,295.15 L 152.29,292.90 L 152.26,292.28 L 152.20,290.84 L 152.17,290.09 L 152.13,288.38 L 152.11,287.48 L 152.08,285.45 L 152.06,284.39 L 152.04,282.01 L 152.03,280.78 L 152.02,278.01 L 152.01,276.58 L 152.01,273.40 L 152.00,271.76 L 152.00,268.12 L 152.00,262.13 L 152.00,227.00 L 395.00,227.00 M 278.52,242.87 L 278.19,243.18 L 277.95,243.47 L 277.42,244.12 L 277.09,244.56 L 276.39,245.51 L 275.99,246.09 L 274.22,248.66 L 273.18,250.27 L 271.00,253.67 L 269.83,255.58 L 266.53,261.05 L 264.64,264.30 L 263.90,265.63 L 263.21,266.90 L 262.92,267.45 L 262.39,268.46 L 262.20,268.86 L 261.87,269.58 L 261.78,269.82 L 261.66,270.20 L 261.69,270.25 L 262.21,270.54 L 262.87,270.71 L 263.32,270.78 L 265.39,271.00 L 266.63,271.00 L 268.92,271.07 L 269.93,271.19 L 270.22,271.32 L 270.67,271.62 L 270.73,271.85 L 270.75,272.38 L 270.64,272.75 L 270.36,274.02 L 270.10,275.35 L 269.96,276.19 L 269.32,279.94 L 269.00,282.00 L 268.03,287.85 L 267.74,289.45 L 267.62,290.05 L 267.39,291.11 L 267.32,291.37 L 267.06,292.41 L 267.06,292.71 L 267.12,293.17 L 267.27,293.18 L 267.64,293.06 L 267.94,292.79 L 268.61,292.11 L 269.05,291.57 L 270.01,290.34 L 270.59,289.53 L 271.82,287.77 L 272.54,286.69 L 274.04,284.41 L 274.88,283.08 L 276.63,280.30 L 277.60,278.72 L 286.00,265.00 L 275.78,265.00 L 276.36,261.75 L 277.47,255.17 L 278.08,251.07 L 278.30,249.32 L 278.51,247.64 L 278.59,246.91 L 278.73,245.52 L 278.77,244.96 L 278.83,243.92 L 278.83,243.56 L 278.82,242.95 L 278.77,242.82 M 221.26,116.09 L 223.67,116.10 L 228.78,116.11 L 231.38,116.11 L 236.91,116.12 L 239.72,116.13 L 245.68,116.14 L 248.71,116.15 L 255.11,116.17 L 258.37,116.18 L 265.24,116.20 L 276.08,116.23 L 384.66,116.50 L 388.33,119.30 L 389.19,119.96 L 390.59,121.06 L 391.24,121.62 L 392.27,122.87 L 392.75,123.56 L 393.46,125.44 L 393.63,125.97 L 393.90,127.23 L 394.03,127.90 L 394.24,129.48 L 394.35,130.32 L 394.51,132.27 L 394.58,133.30 L 394.70,135.69 L 394.76,136.95 L 394.84,139.84 L 394.88,141.35 L 394.93,144.79 L 394.95,146.58 L 394.97,150.64 L 394.99,152.75 L 395.00,157.47 L 395.00,159.92 L 395.00,165.38 L 395.00,174.45 L 395.00,221.00 L 151.00,221.00 L 151.00,172.91 L 151.00,167.35 L 151.00,164.66 L 151.01,159.80 L 151.02,157.45 L 151.04,153.24 L 151.05,151.21 L 151.09,147.58 L 151.11,145.84 L 151.17,142.76 L 151.21,141.28 L 151.30,138.69 L 151.35,137.45 L 151.47,135.29 L 151.54,134.26 L 151.71,132.48 L 151.79,131.64 L 152.00,130.19 L 152.12,129.50 L 152.38,128.33 L 152.65,127.22 L 153.38,125.61 L 153.77,124.87 L 154.77,123.69 L 156.63,121.93 L 157.52,121.14 L 158.90,119.85 L 159.61,119.25 L 161.48,118.32 L 162.02,118.10 L 163.40,117.73 L 164.15,117.55 L 166.02,117.25 L 167.03,117.11 L 169.54,116.87 L 170.89,116.76 L 174.18,116.58 L 175.93,116.50 L 180.13,116.37 L 181.25,116.34 L 183.67,116.29 L 184.91,116.26 L 187.61,116.22 L 189.00,116.20 L 191.99,116.17 L 193.52,116.16 L 196.82,116.13 L 198.51,116.12 L 202.14,116.11 L 204.00,116.10 L 207.97,116.10 L 210.00,116.09 L 214.33,116.09 L 216.55,116.09 M 219.00,150.00 L 219.00,194.07 L 228.75,193.79 L 238.50,193.50 L 239.04,150.00 M 249.00,150.00 L 249.00,194.07 L 258.75,193.79 L 268.50,193.50 L 269.04,150.00 M 308.00,150.00 L 308.00,194.07 L 317.75,193.79 L 327.50,193.50 L 328.04,150.00 M 278.00,194.07 L 298.50,193.50 L 298.50,150.50 L 288.25,150.22 L 278.00,149.93 M 189.00,150.00 L 189.00,170.42 L 189.05,178.47 L 189.08,180.95 L 189.11,182.09 L 189.15,184.31 L 189.18,185.31 L 189.24,187.23 L 189.27,188.05 L 189.34,189.60 L 189.38,190.21 L 189.46,191.33 L 189.50,191.71 L 189.58,192.34 L 189.62,192.45 L 189.95,193.06 L 190.30,193.27 L 191.16,193.62 L 191.90,193.72 L 192.70,193.80 L 193.20,193.83 L 194.27,193.87 L 194.92,193.87 L 196.30,193.87 L 197.12,193.85 L 198.86,193.81 L 199.87,193.78 L 209.50,193.50 L 210.04,150.00 M 337.00,171.30 L 337.06,179.65 L 337.09,182.18 L 337.12,183.34 L 337.17,185.60 L 337.21,186.60 L 337.27,188.51 L 337.31,189.31 L 337.39,190.82 L 337.43,191.41 L 337.51,192.46 L 337.56,192.79 L 337.65,193.32 L 337.70,193.37 L 338.16,193.55 L 338.73,193.62 L 340.07,193.74 L 341.00,193.78 L 343.01,193.84 L 344.19,193.84 L 346.64,193.82 L 347.95,193.78 L 357.50,193.50 L 357.50,150.50 L 347.25,150.22 L 337.00,149.93 M 348.03,162.09 L 349.78,162.39 L 350.54,162.69 L 351.93,163.37 L 352.35,163.83 L 353.06,165.07 L 353.44,166.20 L 353.58,166.89 L 354.01,169.87 L 354.03,171.51 L 353.93,174.82 L 353.69,176.26 L 353.40,177.64 L 353.21,178.21 L 352.79,179.28 L 352.53,179.65 L 351.40,181.01 L 350.76,181.44 L 349.46,182.14 L 348.77,182.27 L 347.38,182.39 L 346.69,182.24 L 345.31,181.82 L 344.66,181.43 L 343.40,180.53 L 342.84,179.93 L 341.78,178.61 L 341.36,177.81 L 340.60,176.14 L 340.36,175.18 L 340.00,173.20 L 340.00,172.11 L 340.29,169.29 L 340.73,167.38 L 341.04,166.50 L 341.71,164.82 L 342.10,164.18 L 342.90,163.05 L 343.31,162.79 L 345.42,162.10 L 347.14,161.98 M 321.02,162.39 L 322.51,163.12 L 323.03,163.78 L 323.51,164.50 L 323.71,164.95 L 324.06,165.91 L 324.20,166.49 L 324.46,167.71 L 324.55,168.44 L 324.73,169.96 L 324.79,170.83 L 324.91,173.81 L 324.84,175.33 L 324.71,175.95 L 324.38,177.10 L 324.11,177.63 L 323.47,178.68 L 323.03,179.25 L 321.75,180.65 L 321.08,181.11 L 319.73,181.87 L 319.05,182.03 L 317.70,182.20 L 317.04,182.08 L 315.75,181.70 L 315.15,181.32 L 314.00,180.43 L 313.50,179.82 L 312.55,178.48 L 312.18,177.65 L 311.52,175.90 L 311.31,174.89 L 311.00,172.77 L 311.00,171.59 L 311.09,169.19 L 311.25,167.79 L 311.38,167.18 L 311.68,166.01 L 311.88,165.52 L 312.32,164.59 L 312.59,164.20 L 313.19,163.49 L 313.55,163.21 L 314.30,162.71 L 314.74,162.53 L 316.69,162.00 L 317.93,162.00 M 291.53,162.52 L 293.00,163.40 L 293.51,164.14 L 294.40,165.83 L 294.64,167.01 L 294.85,168.24 L 294.91,168.95 L 295.00,170.42 L 295.00,171.25 L 294.82,175.67 L 294.69,176.91 L 294.62,177.39 L 294.46,178.23 L 294.38,178.46 L 293.68,179.66 L 293.08,180.18 L 291.74,181.14 L 290.95,181.48 L 289.32,182.06 L 288.51,182.14 L 286.94,182.17 L 286.30,181.93 L 284.76,181.03 L 283.84,180.18 L 283.45,179.65 L 282.71,178.52 L 282.41,177.87 L 281.86,176.52 L 281.66,175.79 L 281.07,172.72 L 281.13,171.11 L 281.24,169.48 L 281.40,168.68 L 281.77,167.10 L 282.06,166.34 L 283.08,164.20 L 283.85,163.21 L 284.34,162.88 L 285.40,162.35 L 286.09,162.21 L 287.61,162.02 L 288.60,162.02 M 261.10,162.11 L 262.12,162.32 L 262.51,162.54 L 263.23,163.04 L 263.55,163.43 L 264.15,164.32 L 264.47,164.95 L 265.68,168.57 L 266.03,171.24 L 265.98,172.58 L 265.73,175.21 L 265.39,176.37 L 264.56,178.57 L 263.93,179.37 L 262.48,180.90 L 261.66,181.34 L 259.95,182.00 L 259.00,182.00 L 257.47,181.81 L 256.53,181.51 L 256.10,181.27 L 254.50,180.09 L 253.89,179.19 L 252.81,177.18 L 252.49,175.91 L 252.00,173.18 L 252.00,171.59 L 252.09,169.18 L 252.25,167.77 L 252.38,167.16 L 252.68,165.99 L 252.88,165.50 L 253.32,164.57 L 253.60,164.19 L 254.20,163.48 L 254.57,163.20 L 255.33,162.70 L 255.78,162.52 L 257.76,162.00 L 259.03,162.00 M 202.10,162.11 L 203.12,162.32 L 203.51,162.54 L 204.23,163.04 L 204.55,163.43 L 205.15,164.32 L 205.47,164.95 L 206.68,168.57 L 207.03,171.24 L 206.98,172.58 L 206.73,175.21 L 206.39,176.37 L 205.56,178.57 L 204.93,179.37 L 203.51,180.83 L 202.68,181.27 L 200.97,181.94 L 200.08,181.98 L 198.28,181.86 L 197.42,181.50 L 195.75,180.58 L 195.04,179.81 L 194.07,178.49 L 193.60,177.49 L 193.44,176.89 L 193.17,175.60 L 193.10,174.81 L 193.00,173.09 L 193.00,172.03 L 193.09,169.47 L 193.24,167.98 L 193.37,167.33 L 193.65,166.11 L 193.85,165.60 L 194.29,164.63 L 194.56,164.23 L 195.16,163.50 L 195.52,163.22 L 196.29,162.70 L 196.74,162.52 L 197.69,162.21 L 198.23,162.13 L 199.38,162.00 L 200.03,162.00 M 231.42,162.26 L 232.42,162.55 L 232.87,162.77 L 233.74,163.26 L 234.10,163.59 L 235.01,164.90 L 235.49,166.10 L 235.66,166.82 L 236.17,169.97 L 236.15,171.68 L 235.96,175.13 L 235.60,176.60 L 235.20,178.01 L 234.93,178.59 L 234.35,179.65 L 234.00,180.00 L 232.59,181.13 L 231.76,181.45 L 230.04,181.93 L 229.15,181.93 L 227.40,181.76 L 226.60,181.44 L 225.07,180.63 L 224.49,179.98 L 223.69,178.75 L 223.24,177.67 L 223.05,177.05 L 222.43,174.32 L 222.31,172.83 L 222.18,169.80 L 222.33,168.44 L 222.52,167.11 L 222.67,166.53 L 223.00,165.43 L 223.23,165.00 L 224.06,163.91 L 224.80,163.30 L 225.23,163.06 L 227.14,162.25 L 228.21,162.11 L 230.40,162.01 M 347.61,165.00 L 345.74,165.46 L 344.77,166.15 L 344.61,166.58 L 344.05,169.28 L 343.98,171.40 L 344.08,172.48 L 344.36,174.62 L 344.62,175.55 L 345.22,177.29 L 345.62,177.87 L 346.24,178.73 L 346.50,178.99 L 346.97,179.43 L 347.19,179.50 L 347.61,179.55 L 347.83,179.44 L 348.29,179.12 L 348.56,178.84 L 349.41,177.29 L 349.85,175.75 L 349.99,174.77 L 350.22,172.70 L 350.26,171.52 L 350.27,169.07 L 350.18,167.75 L 349.98,166.40 L 349.75,165.76 L 349.55,165.56 L 349.11,165.21 L 348.79,165.12 L 348.08,165.00 M 229.61,165.00 L 227.74,165.46 L 226.77,166.15 L 226.61,166.58 L 226.02,169.55 L 225.95,171.92 L 226.05,173.10 L 226.33,175.43 L 226.60,176.37 L 226.88,177.26 L 227.05,177.62 L 227.40,178.26 L 227.61,178.46 L 228.28,179.07 L 228.59,179.25 L 229.19,179.53 L 229.46,179.55 L 229.99,179.50 L 230.22,179.35 L 230.66,178.98 L 230.84,178.68 L 231.20,178.00 L 231.34,177.54 L 231.61,176.54 L 231.70,175.93 L 231.88,174.64 L 231.93,173.88 L 232.00,172.28 L 232.00,171.38 L 231.99,169.36 L 231.97,168.27 L 231.95,167.82 L 231.81,166.33 L 231.66,165.92 L 231.27,165.27 L 230.94,165.14 L 230.18,165.00 M 259.00,165.50 L 257.61,165.64 L 257.01,165.98 L 256.83,166.36 L 256.52,167.31 L 256.43,168.11 L 256.34,168.98 L 256.30,169.51 L 256.23,170.65 L 256.20,171.33 L 256.16,173.82 L 256.23,175.32 L 256.31,175.96 L 256.49,177.15 L 256.62,177.60 L 256.91,178.39 L 257.09,178.61 L 257.57,179.15 L 257.78,179.30 L 258.19,179.51 L 258.41,179.49 L 258.87,179.37 L 259.16,179.18 L 259.78,178.70 L 260.19,178.33 L 261.11,177.24 L 261.53,176.39 L 261.65,175.84 L 261.83,174.65 L 261.86,173.87 L 261.85,172.16 L 261.79,171.06 L 261.69,169.33 L 261.62,168.38 L 261.57,168.00 L 261.35,166.71 L 261.17,166.33 L 260.73,165.76 L 260.38,165.64 L 259.58,165.50 M 318.00,165.50 L 316.61,165.64 L 316.01,165.98 L 315.83,166.36 L 315.52,167.31 L 315.43,168.11 L 315.34,168.98 L 315.30,169.51 L 315.23,170.65 L 315.20,171.33 L 315.16,173.82 L 315.23,175.32 L 315.31,175.96 L 315.49,177.15 L 315.62,177.60 L 315.91,178.39 L 316.09,178.61 L 316.57,179.15 L 316.78,179.30 L 317.19,179.51 L 317.41,179.49 L 317.87,179.37 L 318.16,179.18 L 318.78,178.70 L 319.19,178.33 L 320.11,177.24 L 320.53,176.39 L 320.65,175.84 L 320.83,174.65 L 320.86,173.87 L 320.85,172.16 L 320.79,171.06 L 320.69,169.33 L 320.62,168.38 L 320.57,168.00 L 320.35,166.71 L 320.17,166.33 L 319.73,165.76 L 319.38,165.64 L 318.58,165.50 M 288.41,165.00 L 287.28,165.14 L 286.68,165.38 L 286.43,165.59 L 285.99,166.05 L 285.82,166.38 L 285.51,167.10 L 285.40,167.56 L 285.07,170.71 L 285.17,173.13 L 285.35,174.28 L 285.78,176.52 L 286.08,177.37 L 286.40,178.17 L 286.58,178.46 L 286.94,178.97 L 287.14,179.09 L 287.87,179.42 L 288.22,179.41 L 288.91,179.28 L 289.22,179.06 L 289.83,178.54 L 290.10,178.15 L 290.61,177.29 L 290.82,176.76 L 291.21,175.63 L 291.35,174.98 L 291.59,173.65 L 291.65,172.92 L 291.70,169.90 L 291.40,168.32 L 290.99,166.68 L 290.65,165.92 L 290.43,165.67 L 289.93,165.25 L 289.60,165.15 L 288.88,165.00 M 197.52,165.33 L 197.35,165.71 L 197.19,166.14 L 197.15,166.44 L 197.07,167.12 L 197.04,167.56 L 197.01,168.53 L 197.01,169.14 L 197.00,170.44 L 197.00,171.23 L 197.09,173.83 L 197.24,175.42 L 197.34,176.10 L 197.58,177.37 L 197.72,177.83 L 198.02,178.62 L 198.19,178.79 L 198.63,179.18 L 198.85,179.28 L 199.28,179.41 L 199.51,179.37 L 200.00,179.22 L 200.28,179.04 L 200.87,178.62 L 201.23,178.29 L 202.13,177.22 L 202.53,176.37 L 202.65,175.82 L 202.83,174.63 L 202.85,173.85 L 202.85,172.15 L 202.79,171.06 L 202.69,169.31 L 202.61,168.36 L 202.57,167.97 L 202.34,166.66 L 202.14,166.27 L 201.66,165.65 L 201.28,165.49 L 200.40,165.26 L 199.75,165.18 L 198.16,165.10 Z" fill="rgba(3,2,65,1)"/>
<path d="M 475.74,487.33 L 477.25,487.44 L 480.14,488.14 L 481.56,488.57 L 484.18,489.85 L 485.46,490.56 L 487.75,492.36 L 488.85,493.32 L 490.73,495.56 L 491.61,496.74 L 493.00,499.37 L 493.63,500.72 L 494.45,503.67 L 494.98,508.37 L 495.00,513.24 L 479.09,512.83 L 463.17,512.43 L 464.52,515.04 L 464.99,515.94 L 465.91,517.31 L 466.40,517.94 L 467.55,518.90 L 468.18,519.35 L 469.81,520.07 L 473.06,521.09 L 474.08,521.37 L 475.62,521.67 L 476.34,521.78 L 477.63,521.72 L 478.27,521.65 L 479.72,521.17 L 482.52,519.95 L 483.89,519.30 L 486.20,518.20 L 486.70,517.96 L 487.44,517.59 L 488.05,517.28 L 488.12,517.24 L 488.35,517.57 L 488.46,517.79 L 488.75,518.57 L 488.89,519.00 L 489.20,520.13 L 489.65,522.10 L 490.70,527.23 L 486.60,529.09 L 485.91,529.41 L 484.34,529.91 L 483.52,530.15 L 481.74,530.50 L 479.93,530.81 L 476.00,530.97 L 474.05,530.97 L 470.29,530.50 L 469.39,530.35 L 467.72,529.92 L 466.92,529.68 L 465.50,529.10 L 464.33,528.56 L 461.95,526.96 L 460.78,526.10 L 458.59,524.08 L 457.55,523.04 L 455.83,520.85 L 454.06,517.68 L 453.89,517.22 L 453.60,515.96 L 453.47,515.28 L 453.28,513.70 L 453.11,512.05 L 453.03,508.33 L 453.04,506.49 L 453.32,503.14 L 453.41,502.38 L 453.65,501.10 L 454.12,499.68 L 454.52,498.90 L 455.93,496.99 L 456.70,496.01 L 458.57,494.00 L 459.52,493.02 L 461.45,491.31 L 464.01,489.51 L 464.36,489.33 L 465.35,488.95 L 465.88,488.75 L 467.13,488.38 L 471.08,487.51 L 472.66,487.27 M 246.22,487.79 L 247.75,488.11 L 250.58,489.22 L 251.94,489.85 L 254.39,491.54 L 255.56,492.45 L 257.55,494.66 L 258.48,495.82 L 259.95,498.48 L 260.61,499.87 L 261.47,502.93 L 262.00,507.92 L 262.00,513.21 L 246.50,512.86 L 244.37,512.81 L 240.48,512.78 L 238.63,512.78 L 235.55,512.84 L 234.85,512.86 L 233.66,512.92 L 233.10,512.95 L 232.22,513.03 L 231.83,513.07 L 231.32,513.16 L 231.00,513.32 L 231.00,513.89 L 231.46,515.09 L 231.77,515.70 L 232.77,516.91 L 233.32,517.50 L 234.77,518.62 L 237.33,520.06 L 238.70,520.69 L 240.90,521.45 L 241.94,521.74 L 243.82,521.84 L 244.76,521.80 L 246.81,521.20 L 247.35,521.00 L 248.55,520.48 L 250.58,519.50 L 251.26,519.16 L 252.50,518.53 L 253.10,518.24 L 254.10,517.74 L 254.55,517.51 L 255.20,517.20 L 255.64,517.00 L 255.66,517.00 L 255.75,517.28 L 255.80,517.47 L 255.93,518.05 L 256.45,520.57 L 256.63,521.55 L 257.08,523.51 L 257.19,523.97 L 257.40,524.73 L 257.67,525.57 L 257.76,525.81 L 257.64,526.32 L 257.53,526.58 L 257.00,527.14 L 256.69,527.42 L 255.75,528.02 L 253.86,528.98 L 252.55,529.57 L 249.30,530.34 L 247.61,530.66 L 243.92,530.88 L 242.07,530.92 L 238.43,530.57 L 236.66,530.33 L 233.53,529.41 L 232.47,529.02 L 230.52,528.04 L 229.58,527.51 L 227.85,526.27 L 227.02,525.62 L 225.54,524.13 L 224.83,523.36 L 223.60,521.66 L 223.02,520.78 L 222.05,518.88 L 221.61,517.90 L 220.93,515.82 L 220.62,514.76 L 220.24,512.52 L 220.00,509.00 L 220.00,507.65 L 220.29,505.09 L 220.48,503.83 L 221.13,501.47 L 221.50,500.32 L 222.50,498.19 L 223.04,497.15 L 224.37,495.27 L 225.07,494.37 L 226.71,492.76 L 227.57,491.99 L 229.51,490.67 L 230.52,490.06 L 232.73,489.06 L 236.35,487.95 L 238.09,487.56 L 241.45,487.34 L 243.10,487.32 M 169.22,487.79 L 170.75,488.11 L 173.58,489.22 L 174.94,489.85 L 177.39,491.54 L 178.56,492.45 L 180.55,494.66 L 181.48,495.82 L 182.95,498.48 L 183.61,499.87 L 184.47,502.93 L 185.00,507.92 L 185.00,513.21 L 169.50,512.86 L 167.37,512.81 L 163.48,512.78 L 161.63,512.78 L 158.55,512.84 L 157.85,512.86 L 156.66,512.92 L 156.10,512.95 L 155.22,513.03 L 154.83,513.07 L 154.32,513.16 L 154.00,513.32 L 154.00,513.89 L 154.46,515.09 L 154.77,515.70 L 155.77,516.91 L 156.32,517.50 L 157.77,518.62 L 160.33,520.06 L 161.70,520.69 L 163.90,521.45 L 164.94,521.74 L 166.82,521.84 L 167.76,521.80 L 169.81,521.20 L 170.35,521.00 L 171.55,520.48 L 173.58,519.50 L 174.26,519.16 L 175.50,518.53 L 176.10,518.24 L 177.10,517.74 L 177.55,517.51 L 178.20,517.20 L 178.64,517.00 L 178.66,517.00 L 178.75,517.28 L 178.80,517.47 L 178.93,518.05 L 179.45,520.57 L 179.63,521.55 L 180.08,523.51 L 180.19,523.97 L 180.40,524.73 L 180.67,525.57 L 180.76,525.81 L 180.64,526.32 L 180.53,526.58 L 180.00,527.14 L 179.69,527.42 L 178.75,528.02 L 176.86,528.98 L 175.55,529.57 L 172.30,530.34 L 170.61,530.66 L 166.92,530.88 L 165.07,530.92 L 161.43,530.57 L 159.66,530.33 L 156.53,529.41 L 155.47,529.02 L 153.52,528.04 L 152.58,527.51 L 150.85,526.27 L 150.02,525.62 L 148.54,524.13 L 147.83,523.36 L 146.60,521.66 L 146.02,520.78 L 145.05,518.88 L 144.61,517.90 L 143.93,515.82 L 143.62,514.76 L 143.24,512.52 L 143.00,509.00 L 143.00,507.65 L 143.29,505.09 L 143.48,503.83 L 144.13,501.47 L 144.50,500.32 L 145.50,498.19 L 146.04,497.15 L 147.37,495.27 L 148.07,494.37 L 149.71,492.76 L 150.57,491.99 L 152.51,490.67 L 153.52,490.06 L 155.73,489.06 L 159.35,487.95 L 161.09,487.56 L 164.45,487.34 L 166.10,487.32 M 397.54,488.42 L 398.34,488.59 L 399.82,489.07 L 401.77,490.00 L 402.76,490.60 L 404.09,491.36 L 404.67,491.67 L 405.36,491.87 L 405.64,491.91 L 405.89,491.57 L 406.00,490.50 L 406.00,490.22 L 406.25,489.79 L 406.42,489.59 L 407.08,489.32 L 407.47,489.21 L 408.62,489.07 L 411.00,489.00 L 416.00,489.00 L 416.00,530.00 L 409.92,530.00 L 408.39,529.93 L 407.72,529.88 L 406.88,529.65 L 406.52,529.51 L 406.17,529.04 L 406.00,528.00 L 406.00,527.37 L 405.88,526.59 L 405.79,526.28 L 405.35,526.14 L 405.07,526.15 L 404.14,526.66 L 401.99,528.17 L 401.48,528.54 L 400.28,529.18 L 399.66,529.47 L 398.28,529.94 L 396.86,530.38 L 393.69,530.73 L 392.08,530.83 L 388.88,530.50 L 387.31,530.24 L 384.49,529.19 L 383.26,528.61 L 380.84,526.92 L 379.66,526.01 L 377.50,523.81 L 376.47,522.67 L 374.78,520.20 L 372.98,516.44 L 372.59,515.26 L 372.16,512.80 L 372.00,511.56 L 372.00,509.03 L 372.05,507.77 L 372.46,505.25 L 372.71,504.01 L 373.49,501.58 L 373.93,500.39 L 375.06,498.13 L 375.66,497.03 L 377.11,495.02 L 377.88,494.05 L 379.62,492.36 L 382.53,490.28 L 383.19,489.91 L 384.68,489.29 L 385.45,489.01 L 387.11,488.57 L 388.80,488.18 L 392.38,487.95 L 394.16,487.92 M 209.50,488.50 L 213.25,488.81 L 214.18,488.89 L 215.41,489.06 L 215.93,489.18 L 216.52,489.65 L 216.76,489.95 L 216.94,491.00 L 217.00,493.56 L 217.00,498.00 L 209.00,498.00 L 209.00,530.00 L 198.00,530.00 L 198.00,498.00 L 190.00,498.00 L 190.00,492.46 L 190.06,491.00 L 190.12,490.37 L 190.48,489.65 L 190.71,489.35 L 191.59,489.06 L 193.75,488.81 L 197.50,488.50 L 197.80,481.75 L 198.09,475.00 L 208.91,475.00 M 132.40,468.65 L 132.45,469.06 L 132.54,470.46 L 132.59,471.24 L 132.67,473.32 L 132.71,474.44 L 132.78,477.11 L 132.81,478.51 L 132.87,481.70 L 132.90,483.35 L 132.94,486.96 L 132.96,488.82 L 132.98,492.77 L 133.00,499.00 L 133.00,530.00 L 122.00,530.00 L 122.00,511.80 L 121.94,507.79 L 121.90,505.88 L 121.78,502.72 L 121.75,502.00 L 121.67,500.77 L 121.63,500.20 L 121.54,499.30 L 121.50,498.90 L 121.40,498.37 L 121.25,498.06 L 121.20,498.06 L 120.94,498.30 L 120.78,498.45 L 120.33,498.95 L 120.08,499.23 L 119.47,499.97 L 119.14,500.37 L 118.38,501.32 L 117.60,502.32 L 115.69,504.82 L 112.55,509.08 L 111.45,510.58 L 109.38,513.30 L 108.38,514.60 L 106.63,516.71 L 106.23,517.20 L 105.51,518.00 L 105.17,518.38 L 104.60,518.96 L 104.34,519.22 L 103.95,519.54 L 103.58,519.69 L 103.51,519.67 L 103.21,519.41 L 103.04,519.25 L 102.56,518.74 L 102.04,518.17 L 100.53,516.39 L 99.72,515.42 L 97.79,513.00 L 94.63,508.93 L 93.54,507.49 L 91.50,504.86 L 90.52,503.60 L 88.85,501.49 L 88.07,500.52 L 86.94,499.16 L 86.70,498.88 L 86.35,498.50 L 86.06,498.24 L 86.02,498.22 L 85.94,498.51 L 85.91,498.71 L 85.85,499.40 L 85.82,499.79 L 85.78,500.84 L 85.76,501.40 L 85.73,502.76 L 85.71,504.18 L 85.72,507.79 L 85.83,513.99 L 86.24,530.00 L 75.00,530.00 L 75.00,497.23 L 75.00,494.18 L 75.00,492.70 L 75.01,489.97 L 75.02,488.65 L 75.03,486.23 L 75.03,485.05 L 75.05,482.92 L 75.06,481.89 L 75.08,480.03 L 75.10,479.14 L 75.13,477.54 L 75.16,476.00 L 75.25,473.63 L 75.30,472.55 L 75.43,471.00 L 75.50,470.32 L 75.67,469.46 L 75.77,469.11 L 75.99,468.83 L 76.38,468.90 L 76.48,468.98 L 76.92,469.46 L 77.19,469.75 L 77.93,470.61 L 78.34,471.08 L 79.35,472.28 L 79.89,472.92 L 81.13,474.41 L 81.77,475.18 L 83.19,476.91 L 83.93,477.81 L 85.50,479.73 L 90.58,486.03 L 92.35,488.22 L 95.61,492.23 L 96.39,493.18 L 97.84,494.94 L 98.54,495.79 L 99.81,497.31 L 100.42,498.03 L 101.46,499.26 L 101.96,499.84 L 102.75,500.74 L 103.11,501.15 L 103.61,501.67 L 103.99,502.00 L 104.03,502.00 L 104.39,501.65 L 104.61,501.43 L 105.29,500.66 L 105.66,500.23 L 106.63,499.09 L 107.15,498.48 L 108.37,497.01 L 109.00,496.24 L 110.43,494.49 L 111.17,493.59 L 112.77,491.61 L 118.04,485.02 L 119.89,482.68 L 123.33,478.42 L 124.15,477.40 L 125.68,475.53 L 126.43,474.63 L 127.77,473.02 L 128.41,472.25 L 129.53,470.93 L 130.05,470.32 L 130.90,469.36 L 131.28,468.93 L 131.82,468.37 L 132.25,468.02 L 132.30,468.01 M 292.32,488.35 L 292.95,488.64 L 293.06,488.76 L 293.33,489.31 L 293.48,489.63 L 293.80,490.50 L 294.76,493.75 L 295.01,494.78 L 295.29,496.16 L 295.39,496.75 L 295.31,497.43 L 295.22,497.70 L 294.69,497.92 L 293.29,498.00 L 292.42,498.00 L 290.46,498.44 L 289.47,498.73 L 287.50,499.62 L 286.54,500.11 L 284.87,501.30 L 283.02,503.25 L 282.76,503.64 L 282.34,504.98 L 282.14,505.74 L 281.81,507.89 L 281.66,509.07 L 281.43,512.11 L 281.17,517.75 L 280.79,530.00 L 270.00,530.00 L 270.00,489.00 L 276.17,489.00 L 277.75,489.06 L 278.44,489.11 L 279.25,489.38 L 279.58,489.54 L 279.88,490.12 L 280.00,491.50 L 280.00,492.25 L 280.21,493.22 L 280.34,493.62 L 280.84,493.89 L 281.12,493.93 L 281.92,493.49 L 283.47,492.04 L 284.00,491.45 L 285.70,490.34 L 286.60,489.82 L 288.60,489.00 L 289.59,488.65 L 291.31,488.33 L 291.70,488.29 M 361.05,467.97 L 361.15,468.07 L 361.32,468.72 L 361.40,469.12 L 361.53,470.44 L 361.59,471.19 L 361.70,473.26 L 361.74,474.40 L 361.82,477.32 L 361.85,478.89 L 361.90,482.75 L 361.92,484.80 L 361.95,489.68 L 361.95,490.97 L 361.96,493.75 L 361.97,498.25 L 362.00,530.00 L 351.05,530.00 L 350.77,513.80 L 350.50,497.60 L 342.15,508.80 L 341.00,510.34 L 338.84,513.15 L 337.80,514.49 L 336.02,516.71 L 335.60,517.22 L 334.88,518.08 L 334.54,518.48 L 333.98,519.12 L 333.72,519.40 L 333.34,519.77 L 333.01,520.00 L 332.96,520.00 L 332.69,519.78 L 332.53,519.63 L 332.05,519.13 L 331.79,518.85 L 331.15,518.12 L 330.80,517.72 L 330.01,516.77 L 329.18,515.77 L 327.18,513.27 L 323.87,509.00 L 322.72,507.49 L 320.58,504.73 L 319.55,503.42 L 317.81,501.23 L 317.41,500.73 L 316.71,499.89 L 316.39,499.49 L 315.85,498.87 L 315.61,498.59 L 315.27,498.23 L 315.00,498.00 L 314.97,498.00 L 314.91,498.33 L 314.88,498.54 L 314.83,499.26 L 314.81,499.67 L 314.77,500.74 L 314.76,501.32 L 314.73,502.70 L 314.72,504.15 L 314.72,507.79 L 314.80,514.00 L 315.10,530.00 L 304.00,530.00 L 304.00,496.62 L 304.02,492.32 L 304.03,490.22 L 304.07,486.35 L 304.09,484.47 L 304.15,481.08 L 304.18,479.45 L 304.25,476.59 L 304.29,475.24 L 304.39,472.98 L 304.44,471.92 L 304.54,470.31 L 304.60,469.59 L 304.72,468.68 L 304.91,468.17 L 304.98,468.19 L 305.37,468.57 L 305.60,468.81 L 306.31,469.60 L 306.70,470.04 L 307.68,471.18 L 308.20,471.79 L 309.43,473.25 L 310.07,474.01 L 311.49,475.73 L 312.23,476.62 L 313.81,478.57 L 319.00,485.00 L 320.81,487.27 L 324.18,491.43 L 324.99,492.42 L 326.49,494.26 L 327.22,495.15 L 328.54,496.74 L 329.17,497.50 L 330.27,498.80 L 330.79,499.41 L 331.63,500.38 L 332.01,500.82 L 332.55,501.40 L 332.98,501.80 L 333.06,501.83 L 333.69,501.27 L 334.07,500.90 L 335.28,499.57 L 335.96,498.81 L 337.72,496.74 L 338.67,495.62 L 340.95,492.86 L 342.15,491.40 L 344.92,487.99 L 346.36,486.21 L 349.57,482.19 L 351.23,480.11 L 354.85,475.52 L 360.72,468.06 L 360.84,467.90 M 441.50,488.50 L 445.75,488.81 L 450.00,489.11 L 450.00,498.00 L 442.00,498.00 L 442.00,530.00 L 430.00,530.00 L 430.00,498.00 L 425.63,498.00 L 424.48,497.93 L 423.99,497.85 L 423.44,497.43 L 423.22,497.15 L 423.06,496.09 L 423.00,493.50 L 423.00,492.39 L 423.06,490.92 L 423.11,490.29 L 423.44,489.58 L 423.65,489.30 L 424.45,489.08 L 426.39,489.00 L 427.40,489.00 L 428.81,488.71 L 429.43,488.49 L 430.20,487.52 L 430.37,487.22 L 430.60,486.43 L 430.71,486.00 L 430.85,484.92 L 430.90,484.34 L 430.97,482.94 L 431.00,480.42 L 431.00,475.00 L 440.91,475.00 M 391.57,498.20 L 387.99,499.67 L 387.07,500.21 L 385.60,501.63 L 384.94,502.39 L 383.98,504.13 L 383.57,505.03 L 383.11,506.97 L 382.94,507.96 L 382.96,509.97 L 383.04,510.97 L 383.54,512.92 L 383.85,513.87 L 384.83,515.63 L 385.37,516.48 L 386.80,517.92 L 389.45,519.59 L 390.43,520.02 L 391.93,520.55 L 392.64,520.77 L 393.88,520.87 L 394.51,520.87 L 395.87,520.55 L 396.60,520.33 L 398.47,519.58 L 399.46,519.16 L 401.17,517.86 L 401.97,517.14 L 403.23,515.31 L 403.80,514.35 L 404.54,512.12 L 405.00,508.45 L 405.00,507.75 L 404.84,506.53 L 404.72,505.94 L 404.28,504.85 L 404.02,504.31 L 403.24,503.21 L 401.60,501.40 L 400.62,500.42 L 398.49,499.08 L 397.40,498.52 L 395.11,498.01 L 393.95,497.86 M 472.88,497.00 L 471.22,497.11 L 470.46,497.19 L 469.23,497.54 L 468.65,497.76 L 467.58,498.45 L 465.86,499.99 L 465.04,500.81 L 463.88,502.32 L 463.66,502.66 L 463.39,503.21 L 463.34,503.74 L 463.40,503.84 L 464.32,504.03 L 464.89,504.13 L 466.64,504.28 L 467.59,504.35 L 469.95,504.44 L 473.90,504.50 L 474.85,504.50 L 476.52,504.48 L 477.32,504.47 L 478.69,504.43 L 479.99,504.39 L 481.80,504.22 L 482.59,504.12 L 483.49,503.82 L 483.84,503.65 L 484.00,503.20 L 484.00,503.03 L 483.81,502.51 L 483.68,502.23 L 483.28,501.57 L 481.55,499.45 L 481.05,498.96 L 480.11,498.24 L 479.63,497.92 L 478.56,497.49 L 477.99,497.31 L 476.61,497.11 L 473.97,497.00 M 162.39,496.87 L 159.70,497.53 L 159.06,497.75 L 157.92,498.34 L 156.45,499.45 L 155.90,500.01 L 155.05,500.95 L 154.67,501.39 L 154.21,502.12 L 154.03,502.46 L 154.00,503.00 L 154.04,503.25 L 154.46,503.63 L 154.74,503.80 L 155.66,504.04 L 156.19,504.14 L 157.66,504.27 L 158.46,504.31 L 160.50,504.35 L 164.25,504.31 L 165.23,504.29 L 166.94,504.25 L 167.76,504.22 L 169.16,504.16 L 169.82,504.12 L 170.92,504.04 L 171.43,503.99 L 172.26,503.89 L 173.03,503.77 L 173.86,503.45 L 174.16,503.27 L 174.21,502.81 L 174.17,502.63 L 173.90,502.13 L 173.74,501.85 L 173.27,501.22 L 171.41,499.25 L 170.95,498.84 L 169.85,498.18 L 169.27,497.87 L 168.00,497.42 L 166.69,497.02 L 163.82,496.85 M 239.39,496.87 L 236.70,497.53 L 236.06,497.75 L 234.92,498.34 L 233.45,499.45 L 232.90,500.01 L 232.05,500.95 L 231.67,501.39 L 231.21,502.12 L 231.03,502.46 L 231.00,503.00 L 231.04,503.25 L 231.46,503.63 L 231.74,503.80 L 232.66,504.04 L 233.19,504.14 L 234.66,504.27 L 235.46,504.31 L 237.50,504.35 L 241.25,504.31 L 242.23,504.29 L 243.94,504.25 L 244.76,504.22 L 246.16,504.16 L 246.82,504.12 L 247.92,504.04 L 248.43,503.99 L 249.26,503.89 L 250.03,503.77 L 250.86,503.45 L 251.16,503.27 L 251.21,502.81 L 251.17,502.63 L 250.90,502.13 L 250.74,501.85 L 250.27,501.22 L 248.41,499.25 L 247.95,498.84 L 246.85,498.18 L 246.27,497.87 L 245.00,497.42 L 243.69,497.02 L 240.82,496.85 Z" fill="rgba(2,2,88,1)"/>
<path d="M 267.32,291.37 L 267.39,291.11 L 267.62,290.05 L 267.74,289.45 L 268.03,287.85 L 269.00,282.00 L 269.32,279.94 L 269.96,276.19 L 270.10,275.35 L 270.36,274.02 L 270.64,272.75 L 270.75,272.38 L 270.73,271.85 L 270.67,271.62 L 270.22,271.32 L 269.93,271.19 L 268.92,271.07 L 266.63,271.00 L 265.39,271.00 L 263.32,270.78 L 262.87,270.71 L 262.21,270.54 L 261.69,270.25 L 261.66,270.20 L 261.78,269.82 L 261.87,269.58 L 262.20,268.86 L 262.39,268.46 L 262.92,267.45 L 263.21,266.90 L 263.90,265.63 L 264.64,264.30 L 266.53,261.05 L 269.83,255.58 L 271.00,253.67 L 273.18,250.27 L 274.22,248.66 L 275.99,246.09 L 276.39,245.51 L 277.09,244.56 L 277.42,244.12 L 277.95,243.47 L 278.19,243.18 L 278.52,242.87 L 278.77,242.82 L 278.82,242.95 L 278.83,243.56 L 278.83,243.92 L 278.77,244.96 L 278.73,245.52 L 278.59,246.91 L 278.51,247.64 L 278.30,249.32 L 278.08,251.07 L 277.47,255.17 L 276.36,261.75 L 275.78,265.00 L 280.89,265.00 L 286.00,265.00 L 277.60,278.72 L 276.63,280.30 L 274.88,283.08 L 274.04,284.41 L 272.54,286.69 L 271.82,287.77 L 270.59,289.53 L 270.01,290.34 L 269.05,291.57 L 268.61,292.11 L 267.94,292.79 L 267.64,293.06 L 267.27,293.18 L 267.12,293.17 L 267.06,292.71 L 267.06,292.41 M 189.62,192.45 L 189.58,192.34 L 189.50,191.71 L 189.46,191.33 L 189.38,190.21 L 189.34,189.60 L 189.27,188.05 L 189.24,187.23 L 189.18,185.31 L 189.15,184.31 L 189.11,182.09 L 189.08,180.95 L 189.05,178.47 L 189.00,170.42 L 189.00,150.00 L 199.52,150.00 L 210.04,150.00 L 209.77,171.75 L 209.50,193.50 L 199.87,193.78 L 198.86,193.81 L 197.12,193.85 L 196.30,193.87 L 194.92,193.87 L 194.27,193.87 L 193.20,193.83 L 192.70,193.80 L 191.90,193.72 L 191.16,193.62 L 190.30,193.27 L 189.95,193.06 M 204.93,179.37 L 205.56,178.57 L 206.39,176.37 L 206.73,175.21 L 206.98,172.58 L 207.03,171.24 L 206.68,168.57 L 205.47,164.95 L 205.15,164.32 L 204.55,163.43 L 204.23,163.04 L 203.51,162.54 L 203.12,162.32 L 202.10,162.11 L 200.03,162.00 L 199.38,162.00 L 198.23,162.13 L 197.69,162.21 L 196.74,162.52 L 196.29,162.70 L 195.52,163.22 L 195.16,163.50 L 194.56,164.23 L 194.29,164.63 L 193.85,165.60 L 193.65,166.11 L 193.37,167.33 L 193.24,167.98 L 193.09,169.47 L 193.00,172.03 L 193.00,173.09 L 193.10,174.81 L 193.17,175.60 L 193.44,176.89 L 193.60,177.49 L 194.07,178.49 L 195.04,179.81 L 195.75,180.58 L 197.42,181.50 L 198.28,181.86 L 200.08,181.98 L 200.97,181.94 L 202.68,181.27 L 203.51,180.83 M 219.00,172.04 L 219.00,150.00 L 229.02,150.00 L 239.04,150.00 L 238.77,171.75 L 238.50,193.50 L 228.75,193.79 L 219.00,194.07 L 219.00,172.04 M 234.00,180.00 L 234.35,179.65 L 234.93,178.59 L 235.20,178.01 L 235.60,176.60 L 235.96,175.13 L 236.15,171.68 L 236.17,169.97 L 235.66,166.82 L 235.49,166.10 L 235.01,164.90 L 234.10,163.59 L 233.74,163.26 L 232.87,162.77 L 232.42,162.55 L 231.42,162.26 L 230.40,162.01 L 228.21,162.11 L 227.14,162.25 L 225.23,163.06 L 224.80,163.30 L 224.06,163.91 L 223.23,165.00 L 223.00,165.43 L 222.67,166.53 L 222.52,167.11 L 222.33,168.44 L 222.18,169.80 L 222.31,172.83 L 222.43,174.32 L 223.05,177.05 L 223.24,177.67 L 223.69,178.75 L 224.49,179.98 L 225.07,180.63 L 226.60,181.44 L 227.40,181.76 L 229.15,181.93 L 230.04,181.93 L 231.76,181.45 L 232.59,181.13 M 249.00,172.04 L 249.00,150.00 L 259.02,150.00 L 269.04,150.00 L 268.77,171.75 L 268.50,193.50 L 258.75,193.79 L 249.00,194.07 L 249.00,172.04 M 263.93,179.37 L 264.56,178.57 L 265.39,176.37 L 265.73,175.21 L 265.98,172.58 L 266.03,171.24 L 265.68,168.57 L 264.47,164.95 L 264.15,164.32 L 263.55,163.43 L 263.23,163.04 L 262.51,162.54 L 262.12,162.32 L 261.10,162.11 L 259.03,162.00 L 257.76,162.00 L 255.78,162.52 L 255.33,162.70 L 254.57,163.20 L 254.20,163.48 L 253.60,164.19 L 253.32,164.57 L 252.88,165.50 L 252.68,165.99 L 252.38,167.16 L 252.25,167.77 L 252.09,169.18 L 252.00,171.59 L 252.00,173.18 L 252.49,175.91 L 252.81,177.18 L 253.89,179.19 L 254.50,180.09 L 256.10,181.27 L 256.53,181.51 L 257.47,181.81 L 259.00,182.00 L 259.95,182.00 L 261.66,181.34 L 262.48,180.90 M 278.00,172.00 L 278.00,149.93 L 288.25,150.22 L 298.50,150.50 L 298.50,172.00 L 298.50,193.50 L 288.25,193.78 L 278.00,194.07 L 278.00,172.00 M 294.38,178.46 L 294.46,178.23 L 294.62,177.39 L 294.69,176.91 L 294.82,175.67 L 295.00,171.25 L 295.00,170.42 L 294.91,168.95 L 294.85,168.24 L 294.64,167.01 L 294.40,165.83 L 293.51,164.14 L 293.00,163.40 L 291.53,162.52 L 288.60,162.02 L 287.61,162.02 L 286.09,162.21 L 285.40,162.35 L 284.34,162.88 L 283.85,163.21 L 283.08,164.20 L 282.06,166.34 L 281.77,167.10 L 281.40,168.68 L 281.24,169.48 L 281.13,171.11 L 281.07,172.72 L 281.66,175.79 L 281.86,176.52 L 282.41,177.87 L 282.71,178.52 L 283.45,179.65 L 283.84,180.18 L 284.76,181.03 L 286.30,181.93 L 286.94,182.17 L 288.51,182.14 L 289.32,182.06 L 290.95,181.48 L 291.74,181.14 L 293.08,180.18 L 293.68,179.66 M 308.00,172.04 L 308.00,150.00 L 318.02,150.00 L 328.04,150.00 L 327.77,171.75 L 327.50,193.50 L 317.75,193.79 L 308.00,194.07 L 308.00,172.04 M 323.03,179.25 L 323.47,178.68 L 324.11,177.63 L 324.38,177.10 L 324.71,175.95 L 324.84,175.33 L 324.91,173.81 L 324.79,170.83 L 324.73,169.96 L 324.55,168.44 L 324.46,167.71 L 324.20,166.49 L 324.06,165.91 L 323.71,164.95 L 323.51,164.50 L 323.03,163.78 L 322.51,163.12 L 321.02,162.39 L 317.93,162.00 L 316.69,162.00 L 314.74,162.53 L 314.30,162.71 L 313.55,163.21 L 313.19,163.49 L 312.59,164.20 L 312.32,164.59 L 311.88,165.52 L 311.68,166.01 L 311.38,167.18 L 311.25,167.79 L 311.09,169.19 L 311.00,171.59 L 311.00,172.77 L 311.31,174.89 L 311.52,175.90 L 312.18,177.65 L 312.55,178.48 L 313.50,179.82 L 314.00,180.43 L 315.15,181.32 L 315.75,181.70 L 317.04,182.08 L 317.70,182.20 L 319.05,182.03 L 319.73,181.87 L 321.08,181.11 L 321.75,180.65 M 337.70,193.37 L 337.65,193.32 L 337.56,192.79 L 337.51,192.46 L 337.43,191.41 L 337.39,190.82 L 337.31,189.31 L 337.27,188.51 L 337.21,186.60 L 337.17,185.60 L 337.12,183.34 L 337.09,182.18 L 337.06,179.65 L 337.00,171.30 L 337.00,149.93 L 347.25,150.22 L 357.50,150.50 L 357.50,172.00 L 357.50,193.50 L 347.95,193.78 L 346.64,193.82 L 344.19,193.84 L 343.01,193.84 L 341.00,193.78 L 340.07,193.74 L 338.73,193.62 L 338.16,193.55 M 352.53,179.65 L 352.79,179.28 L 353.21,178.21 L 353.40,177.64 L 353.69,176.26 L 353.93,174.82 L 354.03,171.51 L 354.01,169.87 L 353.58,166.89 L 353.44,166.20 L 353.06,165.07 L 352.35,163.83 L 351.93,163.37 L 350.54,162.69 L 349.78,162.39 L 348.03,162.09 L 347.14,161.98 L 345.42,162.10 L 343.31,162.79 L 342.90,163.05 L 342.10,164.18 L 341.71,164.82 L 341.04,166.50 L 340.73,167.38 L 340.29,169.29 L 340.00,172.11 L 340.00,173.20 L 340.36,175.18 L 340.60,176.14 L 341.36,177.81 L 341.78,178.61 L 342.84,179.93 L 343.40,180.53 L 344.66,181.43 L 345.31,181.82 L 346.69,182.24 L 347.38,182.39 L 348.77,182.27 L 349.46,182.14 L 350.76,181.44 L 351.40,181.01 M 198.19,178.79 L 198.02,178.62 L 197.72,177.83 L 197.58,177.37 L 197.34,176.10 L 197.24,175.42 L 197.09,173.83 L 197.00,171.23 L 197.00,170.44 L 197.01,169.14 L 197.01,168.53 L 197.04,167.56 L 197.07,167.12 L 197.15,166.44 L 197.19,166.14 L 197.35,165.71 L 197.52,165.33 L 198.16,165.10 L 199.75,165.18 L 200.40,165.26 L 201.28,165.49 L 201.66,165.65 L 202.14,166.27 L 202.34,166.66 L 202.57,167.97 L 202.61,168.36 L 202.69,169.31 L 202.79,171.06 L 202.85,172.15 L 202.85,173.85 L 202.83,174.63 L 202.65,175.82 L 202.53,176.37 L 202.13,177.22 L 201.23,178.29 L 200.87,178.62 L 200.28,179.04 L 200.00,179.22 L 199.51,179.37 L 199.28,179.41 L 198.85,179.28 L 198.63,179.18 M 227.61,178.46 L 227.40,178.26 L 227.05,177.62 L 226.88,177.26 L 226.60,176.37 L 226.33,175.43 L 226.05,173.10 L 225.95,171.92 L 226.02,169.55 L 226.61,166.58 L 226.77,166.15 L 227.74,165.46 L 229.61,165.00 L 230.18,165.00 L 230.94,165.14 L 231.27,165.27 L 231.66,165.92 L 231.81,166.33 L 231.95,167.82 L 231.97,168.27 L 231.99,169.36 L 232.00,171.38 L 232.00,172.28 L 231.93,173.88 L 231.88,174.64 L 231.70,175.93 L 231.61,176.54 L 231.34,177.54 L 231.20,178.00 L 230.84,178.68 L 230.66,178.98 L 230.22,179.35 L 229.99,179.50 L 229.46,179.55 L 229.19,179.53 L 228.59,179.25 L 228.28,179.07 M 257.09,178.61 L 256.91,178.39 L 256.62,177.60 L 256.49,177.15 L 256.31,175.96 L 256.23,175.32 L 256.16,173.82 L 256.20,171.33 L 256.23,170.65 L 256.30,169.51 L 256.34,168.98 L 256.43,168.11 L 256.52,167.31 L 256.83,166.36 L 257.01,165.98 L 257.61,165.64 L 259.00,165.50 L 259.58,165.50 L 260.38,165.64 L 260.73,165.76 L 261.17,166.33 L 261.35,166.71 L 261.57,168.00 L 261.62,168.38 L 261.69,169.33 L 261.79,171.06 L 261.85,172.16 L 261.86,173.87 L 261.83,174.65 L 261.65,175.84 L 261.53,176.39 L 261.11,177.24 L 260.19,178.33 L 259.78,178.70 L 259.16,179.18 L 258.87,179.37 L 258.41,179.49 L 258.19,179.51 L 257.78,179.30 L 257.57,179.15 M 287.14,179.09 L 286.94,178.97 L 286.58,178.46 L 286.40,178.17 L 286.08,177.37 L 285.78,176.52 L 285.35,174.28 L 285.17,173.13 L 285.07,170.71 L 285.40,167.56 L 285.51,167.10 L 285.82,166.38 L 285.99,166.05 L 286.43,165.59 L 286.68,165.38 L 287.28,165.14 L 288.41,165.00 L 288.88,165.00 L 289.60,165.15 L 289.93,165.25 L 290.43,165.67 L 290.65,165.92 L 290.99,166.68 L 291.40,168.32 L 291.70,169.90 L 291.65,172.92 L 291.59,173.65 L 291.35,174.98 L 291.21,175.63 L 290.82,176.76 L 290.61,177.29 L 290.10,178.15 L 289.83,178.54 L 289.22,179.06 L 288.91,179.28 L 288.22,179.41 L 287.87,179.42 M 316.09,178.61 L 315.91,178.39 L 315.62,177.60 L 315.49,177.15 L 315.31,175.96 L 315.23,175.32 L 315.16,173.82 L 315.20,171.33 L 315.23,170.65 L 315.30,169.51 L 315.34,168.98 L 315.43,168.11 L 315.52,167.31 L 315.83,166.36 L 316.01,165.98 L 316.61,165.64 L 318.00,165.50 L 318.58,165.50 L 319.38,165.64 L 319.73,165.76 L 320.17,166.33 L 320.35,166.71 L 320.57,168.00 L 320.62,168.38 L 320.69,169.33 L 320.79,171.06 L 320.85,172.16 L 320.86,173.87 L 320.83,174.65 L 320.65,175.84 L 320.53,176.39 L 320.11,177.24 L 319.19,178.33 L 318.78,178.70 L 318.16,179.18 L 317.87,179.37 L 317.41,179.49 L 317.19,179.51 L 316.78,179.30 L 316.57,179.15 M 345.62,177.87 L 345.22,177.29 L 344.62,175.55 L 344.36,174.62 L 344.08,172.48 L 343.98,171.40 L 344.05,169.28 L 344.61,166.58 L 344.77,166.15 L 345.74,165.46 L 347.61,165.00 L 348.08,165.00 L 348.79,165.12 L 349.11,165.21 L 349.55,165.56 L 349.75,165.76 L 349.98,166.40 L 350.18,167.75 L 350.27,169.07 L 350.26,171.52 L 350.22,172.70 L 349.99,174.77 L 349.85,175.75 L 349.41,177.29 L 348.56,178.84 L 348.29,179.12 L 347.83,179.44 L 347.61,179.55 L 347.19,179.50 L 346.97,179.43 L 346.50,178.99 L 346.24,178.73 Z" fill="rgba(254,254,254,1)"/>
</g>
</svg>